<?xml version="1.0" encoding="UTF-8" standalone="no"?>
<svg
   xmlns:dc="http://purl.org/dc/elements/1.1/"
   xmlns:cc="http://creativecommons.org/ns#"
   xmlns:rdf="http://www.w3.org/1999/02/22-rdf-syntax-ns#"
   xmlns:svg="http://www.w3.org/2000/svg"
   xmlns="http://www.w3.org/2000/svg"
   xmlns:sodipodi="http://sodipodi.sourceforge.net/DTD/sodipodi-0.dtd"
   xmlns:inkscape="http://www.inkscape.org/namespaces/inkscape"
   width="297mm"
   height="210mm"
   viewBox="0 0 297 210"
   version="1.1"
   id="svg8"
   inkscape:version="1.0.2-2 (e86c870879, 2021-01-15)"
   sodipodi:docname="prospect1.svg">
  <defs
     id="defs2">
    <rect
       x="4.9136905"
       y="32.505952"
       width="284.61607"
       height="129.64583"
       id="rect12" />
  </defs>
  <sodipodi:namedview
     id="base"
     pagecolor="#ffffff"
     bordercolor="#666666"
     borderopacity="1.0"
     inkscape:pageopacity="0.0"
     inkscape:pageshadow="2"
     inkscape:zoom="0.7"
     inkscape:cx="753.9071"
     inkscape:cy="394.79601"
     inkscape:document-units="mm"
     inkscape:current-layer="layer1"
     inkscape:document-rotation="0"
     showgrid="false"
     inkscape:window-width="1366"
     inkscape:window-height="705"
     inkscape:window-x="-8"
     inkscape:window-y="-8"
     inkscape:window-maximized="1" />
  <metadata
     id="metadata5">
    <rdf:RDF>
      <cc:Work
         rdf:about="">
        <dc:format>image/svg+xml</dc:format>
        <dc:type
           rdf:resource="http://purl.org/dc/dcmitype/StillImage" />
        <dc:title></dc:title>
      </cc:Work>
    </rdf:RDF>
  </metadata>
  <g
     inkscape:label="Capa 1"
     inkscape:groupmode="layer"
     id="layer1">
    <text
       xml:space="preserve"
       id="text10"
       style="font-style:normal;font-weight:normal;font-size:10.5833px;line-height:1.25;font-family:sans-serif;white-space:pre;shape-inside:url(#rect12);fill:#000000;fill-opacity:1;stroke:none;"
       transform="translate(2.2678571,31.372024)"><tspan
         x="4.9140625"
         y="99.156981"><tspan
           style="font-style:normal;font-variant:normal;font-weight:normal;font-stretch:normal;font-size:74.0833px;font-family:'Amazon Ember Cd RC';-inkscape-font-specification:'Amazon Ember Cd RC'">Logik</tspan><tspan
           style="font-style:normal;font-variant:normal;font-weight:bold;font-stretch:condensed;font-family:'Amazon Ember Cd RC';-inkscape-font-specification:'Amazon Ember Cd RC Bold Condensed';fill:#ffb000;fill-opacity:1">POS</tspan></tspan></text>
    <path
       style="fill:#ffb000;fill-opacity:1;stroke-width:0.264583"
       id="path873"
       d="m 58.945732,77.377241 c 0.599231,0.747046 0.997227,1.622944 1.470427,2.44774 0.185227,0.322855 0.309803,0.697646 0.57876,0.95495 0.950037,0.908884 2.175624,1.326706 3.34183,1.850501 0.895565,0.177742 1.773751,0.520438 2.686693,0.533223 1.397879,0.01958 2.796601,-0.182369 4.171199,-0.437176 3.954856,-0.733113 7.014358,-1.882722 10.622737,-3.816869 9.644219,-5.169455 9.550458,-5.390777 16.92352,-10.725353 5.440742,-4.226367 10.563412,-8.834829 15.834252,-13.265629 1.83424,-1.541912 6.05361,-5.007539 8.04383,-6.645542 0,0 -5.85648,2.365645 -5.85648,2.365645 v 0 c -2.53546,2.16432 -5.0864,4.310499 -7.61688,6.480645 -5.15737,4.42299 -10.196,8.991561 -15.600562,13.118248 -1.995839,1.41777 -3.986802,2.84243 -5.987521,4.253304 -0.371673,0.262097 -0.720002,0.567447 -1.129426,0.765453 -4.033089,1.950477 -5.803355,2.814167 -10.026452,3.603974 -1.236848,0.231318 -2.496976,0.410226 -3.755043,0.386467 -0.834356,-0.01577 -1.634879,-0.335802 -2.452317,-0.503704 -0.937988,-0.425968 -2.147139,-0.851453 -2.917251,-1.611981 -0.253561,-0.250405 -0.388541,-0.598102 -0.562928,-0.908879 -0.478721,-0.85313 -0.862248,-1.759196 -1.321961,-2.622428 0,0 -6.446427,3.777411 -6.446427,3.777411 z" />
    <path
       style="fill:#ffb000;fill-opacity:1;stroke-width:0.264583"
       id="path875"
       d="m 92.222747,54.352965 c -0.276971,-1.146339 -0.524208,-2.411035 0.21553,-3.457978 0.825556,-1.168397 1.885506,-1.806707 3.015999,-2.6641 -0.961004,0.592844 -4.010949,1.72597 -2.883014,1.778535 1.489935,0.06944 2.732439,-1.201211 4.13072,-1.720387 1.451956,-0.53911 2.923019,-1.031759 4.413688,-1.452131 4.98849,-1.406764 9.8407,-2.082134 14.95688,-2.752395 7.12436,-0.617553 14.36969,-1.415989 21.49032,-0.290441 1.00159,0.158319 1.98378,0.42145 2.97566,0.632177 0.78087,0.264665 1.59466,0.447064 2.34261,0.793996 1.67525,0.777047 3.06212,2.113005 3.40306,3.99042 0.24239,1.334801 -0.0808,2.052812 -0.3915,3.341134 -0.57897,1.842654 -1.52665,3.55695 -1.97211,5.444993 -0.132,0.559472 -0.30436,1.133123 -0.25376,1.705723 0.15818,1.79002 0.92232,2.366127 1.9655,3.757817 0.65949,0.5632 1.26188,1.201105 1.97846,1.689602 0.86868,0.59218 1.81619,1.062075 2.75427,1.536713 1.81931,0.920523 4.21641,1.947022 6.18496,2.458874 2.74373,0.713412 6.09123,1.090991 8.87825,1.477822 13.32723,1.005285 26.69963,0.997784 40.05572,0.970957 11.01733,-0.120734 22.03798,0.01781 33.05425,-0.210867 5.48402,-0.113829 6.4123,-0.192413 11.55721,-0.44609 1.29737,-0.09815 2.59473,-0.196303 3.8921,-0.294452 0,0 5.19676,-3.855122 5.19676,-3.855122 v 0 c -1.38223,0.168902 -2.76447,0.337804 -4.14671,0.506706 -5.32061,0.465285 -6.42098,0.615693 -12.06713,0.854403 -11.00385,0.465222 -22.02049,0.264739 -33.02956,0.209904 -7.04517,-0.0692 -14.09205,-0.11684 -21.13552,-0.299566 -3.89584,-0.101068 -8.68008,-0.254588 -12.57689,-0.542507 -1.88141,-0.139007 -3.7561,-0.357502 -5.63416,-0.536252 -1.49929,-0.218882 -3.0073,-0.384702 -4.49788,-0.656646 -3.52788,-0.643633 -6.89375,-1.65414 -10.0849,-3.307 -0.87867,-0.45511 -1.75157,-0.932694 -2.55894,-1.504842 -0.65946,-0.467344 -1.21476,-1.066583 -1.82214,-1.599875 -0.936,-1.327996 -1.50572,-1.693111 -1.5788,-3.341475 -0.0236,-0.532289 0.1222,-1.061466 0.24952,-1.578846 0.46738,-1.899182 1.43252,-3.629234 1.95028,-5.512276 0.28519,-1.494734 0.5883,-2.201391 0.22943,-3.720915 -0.48383,-2.048589 -2.0323,-3.572766 -3.91702,-4.402214 -0.80186,-0.352891 -1.67499,-0.514244 -2.51249,-0.771366 -1.04588,-0.197215 -2.08383,-0.442473 -3.13764,-0.59164 -7.25919,-1.027555 -14.62485,-0.300572 -21.87632,0.386858 -1.67516,0.207658 -3.3563,0.371692 -5.02548,0.622972 -2.47281,0.372263 -7.4945,1.329862 -9.90595,1.96538 -1.35219,0.35636 -6.983916,2.165914 -8.347878,2.860289 -2.983544,1.518886 -5.816719,3.316621 -8.725077,4.974931 -1.32057,1.086602 -2.290725,1.656988 -3.144541,3.143031 -0.668221,1.163018 -0.349327,2.454981 -0.372031,3.704145 0,0 6.706264,-3.297999 6.706264,-3.297999 z" />
  </g>
</svg>
